<?xml version="1.0" encoding="UTF-8"?>
<svg width="14px" height="14px" viewBox="0 0 14 14" version="1.1" xmlns="http://www.w3.org/2000/svg" xmlns:xlink="http://www.w3.org/1999/xlink">
    <!-- Generator: Sketch 51.1 (57501) - http://www.bohemiancoding.com/sketch -->
    <title>添加</title>
    <desc>Created with Sketch.</desc>
    <defs></defs>
    <g id="Page-1" stroke="none" stroke-width="1" fill="none" fill-rule="evenodd">
        <g id="新增基本信息" transform="translate(-716.000000, -1607.000000)" fill="#909399" fill-rule="nonzero">
            <g id="Group-6" transform="translate(20.000000, 116.000000)">
                <g id="Group-20" transform="translate(25.000000, 1234.000000)">
                    <g transform="translate(577.000000, 254.000000)" id="添加新模版">
                        <g>
                            <g id="添加" transform="translate(101.000000, 10.000000) scale(-1, 1) translate(-101.000000, -10.000000) translate(94.000000, 3.000000)">
                                <path d="M6.99998338,14 C3.13400241,14 0,10.8658125 0,6.99988368 C0,3.13395484 3.13400241,0 6.99998338,0 C10.8659976,0 14,3.13395484 14,6.99988368 C14,10.8658125 10.8659976,14 6.99998338,14 Z M6.99998338,0.874952236 C3.61721265,0.874952236 0.875010392,3.61716271 0.875010392,6.99988368 C0.875010392,10.3826046 3.61721263,13.1248484 6.99998338,13.1248484 C10.3827541,13.1248484 13.1249564,10.3826047 13.1249564,6.99988368 C13.1249564,3.61716269 10.3827541,0.874952236 6.99998338,0.874952236 Z M9.62498129,7.43745949 L7.43752181,7.43745949 L7.43752181,9.62493977 C7.43752181,9.86642738 7.24163835,10.0623494 7.00001662,10.0623494 C6.75839488,10.0623494 6.56254466,9.86642738 6.56254466,9.62493977 L6.56254466,7.43745949 L4.37501869,7.43745949 C4.13339696,7.43745949 3.9375135,7.24157071 3.9375135,6.99988368 C3.9375135,6.75836283 4.13343019,6.56247403 4.37501869,6.56247403 L6.56254466,6.56247403 L6.56254466,4.37489405 C6.56254466,4.13340644 6.75842812,3.93758411 7.00001662,3.93758411 C7.24167159,3.93758411 7.43752181,4.13337319 7.43752181,4.37489405 L7.43752181,6.56247403 L9.62498131,6.56247403 C9.86663628,6.56247403 10.0624865,6.75836282 10.0624865,6.99988368 C10.0624865,7.24157071 9.86663626,7.43745949 9.62498129,7.43745949 Z" id="Shape"></path>
                            </g>
                        </g>
                    </g>
                </g>
            </g>
        </g>
    </g>
</svg>