<?xml version="1.0" encoding="UTF-8"?>
<svg width="16px" height="19px" viewBox="0 0 16 19" version="1.1" xmlns="http://www.w3.org/2000/svg" xmlns:xlink="http://www.w3.org/1999/xlink">
    <!-- Generator: Sketch 51.1 (57501) - http://www.bohemiancoding.com/sketch -->
    <title>password copy</title>
    <desc>Created with Sketch.</desc>
    <defs></defs>
    <g id="Page-1" stroke="none" stroke-width="1" fill="none" fill-rule="evenodd">
        <g id="账号登陆" transform="translate(-550.000000, -350.000000)">
            <g id="Group-10-Copy">
                <g id="Group-22" transform="translate(503.000000, 194.000000)">
                    <g id="密码" transform="translate(30.000000, 147.000000)">
                        <g id="password-copy" transform="translate(15.000000, 8.000000)">
                            <rect id="Rectangle-5" x="0" y="0" width="20" height="20"></rect>
                            <path d="M9.54523494,11.0000007 C8.69266351,10.9991779 8.00082351,11.6897379 8.00000066,12.5423093 C7.99945209,13.1387893 8.34249209,13.6821493 8.88128066,13.9381493 L8.88128066,15.5981264 C8.88128066,15.964755 9.17851494,16.2620807 9.54523494,16.2620807 C9.91195494,16.2620807 10.2091892,15.964755 10.2091892,15.5981264 L10.2091892,13.9381493 C10.9792921,13.5722522 11.3069721,12.6512922 10.9410749,11.8811893 C10.6850749,11.3424922 10.1417149,10.9994522 9.54523494,11.0000007 Z" id="Fill-1" fill="#909399"></path>
                            <path d="M16.6076343,17.2708571 C16.6076343,18.00128 16.45824,18.1506743 15.7278171,18.1506743 L4.24923429,18.1506743 C3.51881143,18.1506743 3.36941714,18.00128 3.36941714,17.2708571 L3.36941714,10.2077257 C3.36941714,9.47730286 3.51881143,9.32790857 4.24923429,9.32790857 L15.7278171,9.32790857 C16.45824,9.32790857 16.6076343,9.47730286 16.6076343,10.2077257 L16.6076343,17.2708571 Z M16.6076343,8 L3.328,8 C2.59456,8 2,8.59456 2,9.32790857 L2,18.1589029 C2,18.8923429 2.59456,19.4869029 3.328,19.4869029 L16.6076343,19.4869029 C17.3410743,19.4869029 17.9356343,18.8923429 17.9356343,18.1589029 L17.9356343,9.32790857 C17.9356343,8.59456 17.3410743,8 16.6076343,8 Z" id="Fill-3" fill="#909399"></path>
                            <path d="M16.9116138,6.65979429 C16.2376938,3.38025143 13.3154538,1 9.96304235,1 C6.61063092,1 3.68839092,3.38025143 3.01447092,6.65979429 C2.97213949,6.86587429 3.02370521,7.07698286 3.15572806,7.23899429 C3.28592235,7.39872 3.47874521,7.49024 3.68491663,7.49024 C4.00866521,7.49024 4.29172806,7.25654857 4.35792235,6.93453714 C4.90265378,4.29033143 7.25995663,2.37124571 9.96304235,2.37124571 C12.6661281,2.37124571 15.0234309,4.29033143 15.5681623,6.93453714 C15.6344481,7.25654857 15.9176023,7.49024 16.2411681,7.49024 C16.4473395,7.49024 16.6401623,7.39872 16.7703566,7.23908571 C16.9023795,7.07698286 16.9539452,6.86587429 16.9116138,6.65979429" id="Fill-6" fill="#909399"></path>
                        </g>
                    </g>
                </g>
            </g>
        </g>
    </g>
</svg>