<?xml version="1.0" encoding="UTF-8"?>
<svg width="16px" height="16px" viewBox="0 0 16 16" version="1.1" xmlns="http://www.w3.org/2000/svg" xmlns:xlink="http://www.w3.org/1999/xlink">
    <!-- Generator: Sketch 51.1 (57501) - http://www.bohemiancoding.com/sketch -->
    <title>user copy</title>
    <desc>Created with Sketch.</desc>
    <defs></defs>
    <g id="Page-1" stroke="none" stroke-width="1" fill="none" fill-rule="evenodd">
        <g id="账号登陆" transform="translate(-550.000000, -300.000000)">
            <g id="Group-10-Copy">
                <g id="Group-22" transform="translate(503.000000, 194.000000)">
                    <g id="用户名" transform="translate(30.000000, 96.000000)">
                        <g id="user-copy" transform="translate(15.000000, 8.000000)">
                            <rect id="Rectangle-5-Copy" x="0" y="0" width="20" height="20"></rect>
                            <path d="M10,3.29411765 C12.1174902,3.29411765 13.8402353,4.98298039 13.8402353,7.05882353 C13.8402353,9.13443137 12.1174902,10.8230588 10,10.8230588 C7.88227451,10.8230588 6.15929412,9.13443137 6.15929412,7.05882353 C6.15929412,4.98298039 7.88227451,3.29411765 10,3.29411765 M17.9303529,17.076 C17.324549,14.4218824 15.3516078,12.2153725 12.7703529,11.2984314 C14.2423529,10.3712157 15.1534118,8.75435294 15.1534118,7.05882353 C15.1534118,4.26941176 12.8415686,2 10,2 C7.15811765,2 4.84603922,4.26941176 4.84603922,7.05882353 C4.84603922,8.75427451 5.7572549,10.3712941 7.22956863,11.298902 C4.64698039,12.2157647 2.67419608,14.4219608 2.06972549,17.0756863 C2.02282353,17.1682353 2,17.2589804 2,17.3529412 C2,17.7096471 2.29443137,18 2.65639216,18 C2.98266667,18 3.26196078,17.7621961 3.30517647,17.4515294 L3.32227451,17.386902 C3.64964706,15.9163137 4.48847059,14.5796078 5.68423529,13.6231373 C6.89772549,12.6523137 8.43043137,12.1176471 10,12.1176471 C11.5692549,12.1176471 13.1016471,12.6523137 14.3149804,13.6231373 C15.5105882,14.5796078 16.3495686,15.9163137 16.6773333,17.3869804 L16.6916078,17.450902 L16.6952157,17.4621961 C16.7484706,17.7687059 17.0269804,18 17.3431373,18 C17.7053333,18 18,17.7096471 18,17.3529412 C18,17.2600784 17.9772549,17.1694118 17.9303529,17.076" id="Fill-1" fill="#909399"></path>
                        </g>
                    </g>
                </g>
            </g>
        </g>
    </g>
</svg>